<?xml version="1.0" encoding="UTF-8"?>
<svg id="Layer_1" xmlns="http://www.w3.org/2000/svg" version="1.1" viewBox="0 0 160.63 85.03">
  <!-- Generator: Adobe Illustrator 29.7.1, SVG Export Plug-In . SVG Version: 2.1.1 Build 8)  -->
  <defs>
    <style>
      .st0 {
        fill: #231f20;
      }
    </style>
  </defs>
  <path class="st0" d="M2.04,56.12c-.89-.06-1.33-.15-1.72-.54-.44-.42-.46-1.18.12-1.89,0-.1,24.69-24.94,25.02-25.21s.9-.46,1.53.08c.07.03,28.53,19.99,28.53,19.99,0,0,.65.51,1.06-.11.3-.3,35.29-46.81,35.85-47.56.6-.9,1.9-1.25,2.78-.38,1.06,1.17,63.11,67.85,64.9,69.64.95.95.51,2.43-.58,2.79-.18.06-.62.16-1.48-.21-.77-.37-28.76-13.25-29.75-13.68-.34-.08-.45-.28-.93.06-.36.4-21.52,24.15-22.22,24.98-.89,1.06-2.03,1.26-3.12.48-.58-.41-43.9-30.36-44.33-30.74-.61-.53-.93-.3-1.49.37-.26.29-15.89,21.31-16.03,21.51-.69.95-1.85,1.06-2.66.22-.96-1.01-13.94-15.31-15.32-16.84-.81-.9-2.69-3.05-2.7-3.11-.06-.07-17.35.2-17.46.17v-.02ZM59.31,50.28c-.17.2-.22.4.04.57.55.41,42.46,29.54,43.09,29.99.54.39.77.4,1.23-.1.84-.91,21.48-23.86,22.13-24.65.56-.69,1.7-1.13,2.55-.72,2.62,1.25,17.15,7.94,19.75,9.12.75.34,1.49.7,2.25,1.01.15.06.42.08.57-.08.09-.14,0-.4-.09-.5-1.67-1.81-55-58.99-56.25-60.29-.13-.14-.38-.59-.82-.22-.31.3-34.45,45.86-34.45,45.86h0ZM20.15,52.24s.65-.02.98.34c1.11,1.29,16.5,18.34,17.12,19.02.22.24.43.25.64,0,.18-.22,13.57-18.04,14.84-19.68.25-.32.26-.53-.1-.77-1.16-.79-25.81-18.02-27.09-18.92-.24-.17-.44-.12-.63.11-.08.1-17.58,18.2-18.84,19.46-.13.14-.4.28-.14.5.21.18,13.21-.07,13.21-.07h.01Z"/>
</svg>