<?xml version="1.0" encoding="UTF-8"?>
<svg id="Layer_1" data-name="Layer 1" xmlns="http://www.w3.org/2000/svg" viewBox="0 0 418.2 67.29">
  <defs>
    <style>
      .cls-1 {
        fill: #231f20;
      }
    </style>
  </defs>
  <path class="cls-1" d="M0,54l6.03-1.32V7.44L0,6.09v-.6h17.43c8.85,0,16.8,1.74,16.8,10.53,0,7.05-4.02,11.28-10.65,13.59,2.4,5.58,5.58,11.31,8.01,15.15,3.42,5.31,5.88,7.77,8.85,9.96l-.12.51c-6.48.33-10.14-1.98-13.77-7.41-2.73-4.38-5.73-10.32-8.55-16.8-1.95.33-4.05.57-6.27.75v20.91l7.14,1.32v.6H0v-.6ZM21.51,28.8c4.11-1.98,6.69-5.64,6.69-11.37,0-7.29-3.84-10.59-10.62-10.59-2.25,0-4.02.15-5.85.54v21.72c3.39.39,6.54.3,9.78-.3Z"/>
  <path class="cls-1" d="M47.61,44.67v-19.35c-1.74-.54-3.45-1.23-5.13-2.13v-.15c3.72-.9,6.69-1.77,9.9-2.94h.21v23.7c0,4.95,1.32,8.16,6.93,8.16,3.15,0,5.79-1.08,8.22-3.33v-23.31c-1.98-.54-3.75-1.23-5.49-2.13v-.15c3.87-.9,6.93-1.77,10.26-2.94h.21v31.38c1.95.54,3.9,1.26,5.91,2.13v.18c-3.84.42-7.26.99-10.59,1.83-.18-2.19-.3-4.23-.3-6.03-2.1,3.45-5.76,6-10.65,6-7.5,0-9.48-4.92-9.48-10.92Z"/>
  <path class="cls-1" d="M88.35,53.25l-1.95,2.04-.3-.12V6.45c-1.74-.66-3.45-1.53-5.13-2.64v-.15c3.72-1.11,6.69-2.19,9.9-3.66h.21v25.53c2.58-3.66,6.33-5.43,10.95-5.43,8.43,0,13.44,6.3,13.44,16.38,0,12.15-7.29,18.9-17.73,18.9-3.33,0-6.57-.69-9.39-2.13ZM99.54,53.85c7.08,0,10.59-5.49,10.59-15.48s-3.87-15-10.65-14.91c-2.97,0-5.64.84-8.4,3.03v23.28c2.07,2.73,4.95,4.08,8.46,4.08Z"/>
  <path class="cls-1" d="M121.62,37.8c0-10.05,5.97-17.7,16.2-17.7,7.32,0,11.67,3.51,11.79,9.45.03,1.5-.03,2.7-.42,3.87l-21.69-.18c-.03.57-.06,1.17-.06,1.8,0,11.46,5.61,16.38,12,16.38,3.9,0,6.78-1.65,9.54-5.76l.6.18c-2.34,6.9-6.72,9.72-12.12,9.72-10.38,0-15.84-8.07-15.84-17.76ZM143.79,31.65c.24-1.02.33-1.95.33-2.79,0-4.83-2.22-7.65-6.93-7.65-5.52,0-8.85,3.78-9.6,10.74l16.2-.3Z"/>
  <path class="cls-1" d="M175.65,54l5.61-1.2v-21.09c0-5.19-1.56-8.25-7.29-8.25-3.21,0-5.79,1.08-8.61,3.39v25.95l5.55,1.2v.6h-15.3v-.6l4.77-1.2v-25.47c-1.74-.69-3.45-1.59-5.13-2.76v-.15c3.45-1.32,6.21-2.58,9.3-4.32h.18c.45,1.89.63,3.6.63,5.7,2.61-3.66,6.57-5.7,11.07-5.7,6.45,0,9.81,3.84,9.81,11.16v21.54l4.59,1.2v.6h-15.18v-.6Z"/>
  <path class="cls-1" d="M216.15,47.49V7.44l-6.93-1.35v-.6h18.84v.6l-6.21,1.35v40.65c0,7.86-3.3,14.79-12.27,19.2l-.36-.45c5.64-6.03,6.93-11.7,6.93-19.35Z"/>
  <path class="cls-1" d="M234.18,51.24c0-2.52,1.38-3.63,3.87-3.63s3.84,1.11,3.84,3.63-1.35,3.63-3.84,3.63-3.87-1.14-3.87-3.63Z"/>
  <path class="cls-1" d="M266.13,37.08V7.44l-5.97-1.35v-.6h20.79v.6l-8.97,1.35v28.74c0,8.07,2.01,16.83,13.65,16.83,13.2,0,14.25-10.23,14.25-17.61V7.44l-9.27-1.35v-.6h17.43v.6l-6.09,1.35v29.49c0,11.97-6.72,18.63-18.24,18.63s-17.58-6.66-17.58-18.48Z"/>
  <path class="cls-1" d="M311.46,54l4.86-1.2V6.45c-1.74-.66-3.45-1.53-5.13-2.64v-.15c3.72-1.11,6.69-2.19,9.9-3.66h.21v52.8l4.62,1.2v.6h-14.46v-.6Z"/>
  <path class="cls-1" d="M329.79,54l4.86-1.2V6.45c-1.74-.66-3.45-1.53-5.13-2.64v-.15c3.72-1.11,6.69-2.19,9.9-3.66h.21v52.8l4.62,1.2v.6h-14.46v-.6Z"/>
  <path class="cls-1" d="M352.44,44.67v-19.35c-1.74-.54-3.45-1.23-5.13-2.13v-.15c3.72-.9,6.69-1.77,9.9-2.94h.21v23.7c0,4.95,1.32,8.16,6.93,8.16,3.15,0,5.79-1.08,8.22-3.33v-23.31c-1.98-.54-3.75-1.23-5.49-2.13v-.15c3.87-.9,6.93-1.77,10.26-2.94h.21v31.38c1.95.54,3.9,1.26,5.91,2.13v.18c-3.84.42-7.26.99-10.59,1.83-.18-2.19-.3-4.23-.3-6.03-2.1,3.45-5.76,6-10.65,6-7.5,0-9.48-4.92-9.48-10.92ZM370.71,2.73c1.83-.15,3.33,1.11,3.45,3.39l-11.16,10.41-.39-.36,8.1-13.44Z"/>
  <path class="cls-1" d="M407.67,51.09l-3.48,2.07c-2.19,1.29-3.9,2.4-6.96,2.4-4.95,0-8.91-2.79-8.91-7.8s3.81-6.93,19.26-9.6l.06-7.08c.03-3.21,0-8.31-7.53-8.31-2.22,0-4.2.48-5.97,1.38-.09,2.67.24,5.25.9,7.71-.9.69-2.04.99-3.18.99-1.92,0-3.48-1.11-3.48-3.12,0-5.04,8.73-9.63,15.09-9.63s9.3,3.69,9.21,11.22l-.21,15.81c-.03,2.91.15,4.77,2.4,4.77.9,0,1.83-.24,3.21-.9l.12.18c-1.29,2.52-3.72,4.05-5.94,4.05-2.67,0-4.05-.87-4.59-4.14ZM398.82,52.74c2.88,0,5.4-.96,8.7-2.79v-.06l.06-10.38c-11.88,2.22-13.44,3.93-13.44,7.68,0,3.39,1.92,5.55,4.68,5.55Z"/>
</svg>